<svg xmlns="http://www.w3.org/2000/svg" xmlns:xlink="http://www.w3.org/1999/xlink" style="width: 0; height: 0; visibility: hidden; position: absolute;" aria-hidden="true"><symbol  viewBox='0 0 32 32' id='circle-left'>
    <path d="M16 32c8.837 0 16-7.163 16-16S24.837 0 16 0 0 7.163 0 16s7.163 16 16 16zm0-29c7.18 0 13 5.82 13 13s-5.82 13-13 13S3 23.18 3 16 8.82 3 16 3z"></path><path d="m20.914 9.914-2.829-2.829-8.914 8.914 8.914 8.914 2.828-2.828-6.086-6.086z"></path>
  </symbol><symbol  viewBox='0 0 32 32' id='circle-right'>
    <path d="M16 0C7.163 0 0 7.163 0 16s7.163 16 16 16 16-7.163 16-16S24.837 0 16 0zm0 29C8.82 29 3 23.18 3 16S8.82 3 16 3s13 5.82 13 13-5.82 13-13 13z"></path><path d="m11.086 22.086 2.829 2.829 8.914-8.914-8.914-8.914-2.828 2.828 6.086 6.086z"></path>
  </symbol><symbol  viewBox='0 0 48 48' id='youtube-play'>
    <path fill="#FF3D00" d="M43.2 33.9c-.4 2.1-2.1 3.7-4.2 4-3.3.5-8.8 1.1-15 1.1-6.1 0-11.6-.6-15-1.1-2.1-.3-3.8-1.9-4.2-4-.4-2.3-.8-5.7-.8-9.9s.4-7.6.8-9.9c.4-2.1 2.1-3.7 4.2-4C12.3 9.6 17.8 9 24 9c6.2 0 11.6.6 15 1.1 2.1.3 3.8 1.9 4.2 4 .4 2.3.9 5.7.9 9.9-.1 4.2-.5 7.6-.9 9.9z"></path><path fill="#FFF" d="M20 31V17l12 7z"></path>
  </symbol></svg>